<svg width="172" height="31" viewBox="0 0 172 31" fill="none" xmlns="http://www.w3.org/2000/svg">
<path d="M165.83 24.3782C163.88 24.3782 162.266 23.901 160.987 22.9467C159.728 21.9721 159.048 20.6421 158.946 18.9569L161.413 18.9569C161.495 19.9721 161.951 20.7741 162.784 21.3629C163.637 21.9315 164.692 22.2157 165.951 22.2157C168.205 22.2157 169.332 21.3833 169.332 19.7183C169.332 19.231 169.21 18.8452 168.967 18.5609C168.743 18.2767 168.459 18.0635 168.114 17.9213C167.769 17.7589 167.22 17.5457 166.469 17.2817L164.124 16.4899C163.028 16.1244 162.175 15.7995 161.566 15.5152C160.956 15.231 160.439 14.8147 160.012 14.2665C159.586 13.698 159.373 12.9569 159.373 12.0432C159.373 10.6624 159.88 9.56599 160.896 8.75381C161.911 7.94163 163.291 7.53554 165.038 7.53554C166.845 7.53554 168.317 8.01269 169.454 8.96701C170.591 9.92132 171.261 11.2817 171.464 13.0482L168.997 13.0482C168.855 11.9518 168.429 11.1193 167.718 10.5508C167.007 9.98224 166.083 9.69797 164.946 9.69797C163.972 9.69797 163.2 9.90102 162.632 10.3071C162.083 10.7132 161.809 11.2716 161.809 11.9822C161.809 12.632 162.033 13.1091 162.479 13.4137C162.926 13.7183 163.403 13.9518 163.911 14.1142C164.418 14.2767 164.753 14.3883 164.916 14.4492L167.109 15.1802C168.753 15.7284 169.951 16.3274 170.703 16.9772C171.454 17.6269 171.83 18.5812 171.83 19.8401C171.83 21.2817 171.312 22.3985 170.276 23.1904C169.261 23.9822 167.779 24.3782 165.83 24.3782Z" fill="#FDFDFC"/>
<path d="M148.952 24.3782C147.531 24.3782 146.262 24.0228 145.145 23.3122C144.029 22.5812 143.155 21.5761 142.526 20.297C141.917 19.0178 141.612 17.5457 141.612 15.8807C141.612 14.2563 141.917 12.8147 142.526 11.5558C143.155 10.2767 144.018 9.29188 145.115 8.60153C146.232 7.89087 147.501 7.53554 148.922 7.53554C150.12 7.53554 151.206 7.77919 152.181 8.2665C153.176 8.75381 153.968 9.43402 154.556 10.3071L154.556 1.20051L157.084 1.20051L157.084 24.0432L155.074 24.0432L154.8 20.9366C154.252 21.9924 153.46 22.835 152.424 23.4645C151.409 24.0736 150.252 24.3782 148.952 24.3782ZM149.348 22.1853C150.364 22.1853 151.267 21.9213 152.059 21.3934C152.851 20.8452 153.46 20.0939 153.886 19.1396C154.333 18.165 154.556 17.0584 154.556 15.8198C154.556 14.6218 154.343 13.566 153.917 12.6523C153.49 11.7183 152.891 10.9975 152.12 10.4899C151.348 9.96193 150.475 9.69797 149.501 9.69797C148.485 9.69797 147.572 9.96193 146.76 10.4899C145.968 10.9975 145.348 11.7284 144.902 12.6827C144.455 13.6168 144.232 14.6827 144.232 15.8807C144.232 17.099 144.445 18.1853 144.871 19.1396C145.318 20.0939 145.927 20.8452 146.699 21.3934C147.47 21.9213 148.353 22.1853 149.348 22.1853Z" fill="#FDFDFC"/>
<path d="M132.732 24.3782C131.047 24.3782 129.605 24.0127 128.407 23.2817C127.23 22.5305 126.336 21.5152 125.727 20.236C125.118 18.9366 124.813 17.4645 124.813 15.8198C124.813 14.0736 125.159 12.5812 125.849 11.3426C126.56 10.0838 127.514 9.1396 128.712 8.51016C129.91 7.86041 131.25 7.53554 132.732 7.53554C134.397 7.53554 135.819 7.90102 136.996 8.63198C138.194 9.36295 139.098 10.3579 139.707 11.6168C140.336 12.8756 140.651 14.2767 140.651 15.8198C140.651 17.6269 140.306 19.1802 139.616 20.4797C138.945 21.7589 138.011 22.7335 136.813 23.4036C135.616 24.0533 134.255 24.3782 132.732 24.3782ZM132.732 22.1853C133.849 22.1853 134.803 21.901 135.595 21.3325C136.407 20.764 137.017 20.0025 137.423 19.0482C137.849 18.0736 138.062 16.9975 138.062 15.8198C138.062 13.9924 137.575 12.5203 136.6 11.4036C135.626 10.2868 134.336 9.72843 132.732 9.72843C131.128 9.72843 129.839 10.2868 128.864 11.4036C127.89 12.5203 127.402 13.9924 127.402 15.8198C127.402 17.1599 127.636 18.3071 128.103 19.2614C128.59 20.2157 129.23 20.9467 130.022 21.4543C130.834 21.9416 131.737 22.1853 132.732 22.1853Z" fill="#FDFDFC"/>
<path d="M115.933 24.3782C114.248 24.3782 112.807 24.0127 111.609 23.2817C110.431 22.5305 109.537 21.5152 108.928 20.236C108.319 18.9366 108.015 17.4645 108.015 15.8198C108.015 14.0736 108.36 12.5812 109.05 11.3426C109.761 10.0838 110.715 9.1396 111.913 8.51016C113.111 7.86041 114.451 7.53554 115.933 7.53554C117.598 7.53554 119.02 7.90102 120.197 8.63198C121.395 9.36295 122.299 10.3579 122.908 11.6168C123.537 12.8756 123.852 14.2767 123.852 15.8198C123.852 17.6269 123.507 19.1802 122.817 20.4797C122.147 21.7589 121.213 22.7335 120.015 23.4036C118.817 24.0533 117.456 24.3782 115.933 24.3782ZM115.933 22.1853C117.05 22.1853 118.004 21.901 118.796 21.3325C119.609 20.764 120.218 20.0025 120.624 19.0482C121.05 18.0736 121.263 16.9975 121.263 15.8198C121.263 13.9924 120.776 12.5203 119.801 11.4036C118.827 10.2868 117.537 9.72843 115.933 9.72843C114.329 9.72843 113.04 10.2868 112.065 11.4036C111.091 12.5203 110.603 13.9924 110.603 15.8198C110.603 17.1599 110.837 18.3071 111.304 19.2614C111.791 20.2157 112.431 20.9467 113.223 21.4543C114.035 21.9416 114.939 22.1853 115.933 22.1853Z" fill="#FDFDFC"/>
<path d="M98.6577 30.5C96.4648 30.5 94.6983 30.0025 93.3582 29.0076C92.0181 28.0127 91.348 26.6726 91.348 24.9873L93.8759 24.9873C93.8759 25.9619 94.3227 26.764 95.2161 27.3934C96.1095 28.0432 97.2567 28.368 98.6577 28.368C100.282 28.368 101.531 27.9315 102.404 27.0584C103.277 26.1853 103.714 25.0381 103.714 23.6168L103.714 20.9975C103.125 21.8503 102.353 22.5305 101.399 23.0381C100.444 23.5254 99.3683 23.769 98.1704 23.769C96.749 23.769 95.48 23.434 94.3633 22.764C93.2465 22.0736 92.3734 21.1193 91.744 19.901C91.1145 18.6827 90.7998 17.2919 90.7998 15.7284C90.7998 14.1447 91.1145 12.7335 91.744 11.4949C92.3734 10.236 93.2465 9.26142 94.3633 8.57107C95.5003 7.88071 96.7694 7.53554 98.1704 7.53554C99.4496 7.53554 100.597 7.8198 101.612 8.38833C102.627 8.93655 103.409 9.70813 103.957 10.703L104.231 7.90102L106.211 7.90102L106.211 23.6168C106.211 24.9772 105.906 26.1751 105.297 27.2107C104.708 28.2462 103.845 29.0482 102.708 29.6168C101.592 30.2056 100.241 30.5 98.6577 30.5ZM98.5359 21.5761C99.5308 21.5761 100.424 21.3325 101.216 20.8452C102.008 20.3376 102.617 19.6371 103.043 18.7437C103.49 17.83 103.714 16.7944 103.714 15.6371C103.714 14.5 103.49 13.4848 103.043 12.5914C102.617 11.6777 102.008 10.9772 101.216 10.4899C100.424 9.98224 99.5308 9.72843 98.5359 9.72843C97.5409 9.72843 96.6577 9.98224 95.8861 10.4899C95.1145 10.9975 94.5054 11.7081 94.0587 12.6218C93.6323 13.5152 93.4191 14.5406 93.4191 15.698C93.4191 16.835 93.6323 17.8503 94.0587 18.7437C94.5054 19.6371 95.1145 20.3376 95.8861 20.8452C96.6577 21.3325 97.5409 21.5761 98.5359 21.5761Z" fill="#FDFDFC"/>
<path d="M92.3663 1.17005L89.0465 11.3426L87.0059 10.703L90.2038 0.500004L92.3663 1.17005Z" fill="#FDFDFC"/>
<path d="M71.1699 24.0431L71.1699 7.90102L73.1801 7.90102L73.4237 10.368C73.9719 9.49493 74.7435 8.80457 75.7384 8.29696C76.7537 7.78934 77.8501 7.53554 79.0278 7.53554C80.774 7.53554 82.175 8.06345 83.2308 9.11929C84.2867 10.1751 84.8146 11.5863 84.8146 13.3528L84.8146 24.0431L82.2867 24.0431L82.2867 13.4442C82.2867 12.3071 81.9415 11.4137 81.2511 10.764C80.5608 10.0939 79.6065 9.75889 78.3882 9.75889C76.9872 9.75889 75.8603 10.1853 75.0075 11.0381C74.1547 11.8909 73.7181 12.9569 73.6978 14.236L73.6978 24.0431L71.1699 24.0431Z" fill="#FDFDFC"/>
<path d="M67.3102 5.19036C66.7823 5.19036 66.3356 5.00762 65.9701 4.64214C65.6046 4.27665 65.4219 3.82995 65.4219 3.30203C65.4219 2.77412 65.6046 2.33757 65.9701 1.99239C66.3356 1.62691 66.7823 1.44417 67.3102 1.44417C67.8381 1.44417 68.2747 1.62691 68.6198 1.99239C68.9853 2.33757 69.1681 2.77412 69.1681 3.30203C69.1681 3.82995 68.9853 4.27665 68.6198 4.64214C68.2747 5.00762 67.8381 5.19036 67.3102 5.19036ZM68.5589 24.0432L66.031 24.0432L66.031 7.90102L68.5589 7.90102L68.5589 24.0432Z" fill="#FDFDFC"/>
<path d="M53.6363 24.0432L51.1084 24.0432L51.1084 1.20051L53.6363 1.20051L53.6363 15.8503L61.4942 7.90102L64.5399 7.90102L58.7226 13.7792L65.4231 24.0432L62.4688 24.0432L56.9866 15.5457L53.6363 18.9264L53.6363 24.0432Z" fill="#FDFDFC"/>
<path d="M41.3143 24.3782C39.629 24.3782 38.1874 24.0127 36.9894 23.2817C35.8118 22.5305 34.9183 21.5152 34.3092 20.236C33.7001 18.9366 33.3955 17.4645 33.3955 15.8198C33.3955 14.0736 33.7407 12.5812 34.431 11.3426C35.1417 10.0838 36.096 9.1396 37.294 8.51016C38.492 7.86041 39.8321 7.53554 41.3143 7.53554C42.9793 7.53554 44.4006 7.90102 45.5782 8.63198C46.7762 9.36295 47.6798 10.3579 48.2889 11.6168C48.9184 12.8756 49.2331 14.2767 49.2331 15.8198C49.2331 17.6269 48.8879 19.1802 48.1975 20.4797C47.5275 21.7589 46.5935 22.7335 45.3955 23.4036C44.1975 24.0533 42.8371 24.3782 41.3143 24.3782ZM41.3143 22.1853C42.431 22.1853 43.3854 21.901 44.1772 21.3325C44.9894 20.764 45.5986 20.0025 46.0046 19.0482C46.431 18.0736 46.6442 16.9975 46.6442 15.8198C46.6442 13.9924 46.1569 12.5203 45.1823 11.4036C44.2077 10.2868 42.9183 9.72843 41.3143 9.72843C39.7102 9.72843 38.4209 10.2868 37.4463 11.4036C36.4716 12.5203 35.9843 13.9924 35.9843 15.8198C35.9843 17.1599 36.2178 18.3071 36.6848 19.2614C37.1722 20.2157 37.8118 20.9467 38.6036 21.4543C39.4158 21.9416 40.3194 22.1853 41.3143 22.1853Z" fill="#FDFDFC"/>
<path d="M24.5155 24.3782C22.8302 24.3782 21.3886 24.0127 20.1906 23.2817C19.0129 22.5305 18.1195 21.5152 17.5104 20.236C16.9012 18.9366 16.5967 17.4645 16.5967 15.8198C16.5967 14.0736 16.9419 12.5812 17.6322 11.3426C18.3429 10.0838 19.2972 9.1396 20.4952 8.51016C21.6931 7.86041 23.0332 7.53554 24.5155 7.53554C26.1804 7.53554 27.6018 7.90102 28.7794 8.63198C29.9774 9.36295 30.8809 10.3579 31.4901 11.6168C32.1195 12.8756 32.4342 14.2767 32.4342 15.8198C32.4342 17.6269 32.0891 19.1802 31.3987 20.4797C30.7287 21.7589 29.7946 22.7335 28.5967 23.4036C27.3987 24.0533 26.0383 24.3782 24.5155 24.3782ZM24.5155 22.1853C25.6322 22.1853 26.5865 21.901 27.3784 21.3325C28.1906 20.764 28.7997 20.0025 29.2058 19.0482C29.6322 18.0736 29.8454 16.9975 29.8454 15.8198C29.8454 13.9924 29.3581 12.5203 28.3835 11.4036C27.4089 10.2868 26.1195 9.72843 24.5155 9.72843C22.9114 9.72843 21.6221 10.2868 20.6474 11.4036C19.6728 12.5203 19.1855 13.9924 19.1855 15.8198C19.1855 17.1599 19.419 18.3071 19.886 19.2614C20.3733 20.2157 21.0129 20.9467 21.8048 21.4543C22.617 21.9416 23.5205 22.1853 24.5155 22.1853Z" fill="#FDFDFC"/>
<path d="M8.31404 24.3782C6.62877 24.3782 5.17699 24.0025 3.95872 23.2513C2.74044 22.5 1.81658 21.4848 1.18714 20.2056C0.578006 18.9061 0.273437 17.4645 0.273437 15.8807C0.273437 14.1345 0.618615 12.632 1.30897 11.3731C2.01963 10.1142 2.97395 9.1599 4.17191 8.51016C5.39019 7.86041 6.74044 7.53554 8.22268 7.53554C10.2734 7.53554 11.9587 8.12437 13.2785 9.30203C14.6186 10.4594 15.4003 12.0635 15.6237 14.1142L13.1567 14.1142C12.9333 12.7538 12.375 11.6878 11.4816 10.9162C10.6085 10.1244 9.50186 9.72843 8.16176 9.72843C6.5577 9.72843 5.26836 10.2868 4.29374 11.4036C3.31912 12.5 2.83181 13.9924 2.83181 15.8807C2.83181 17.2005 3.07547 18.3376 3.56278 19.2919C4.05009 20.2462 4.70999 20.967 5.54247 21.4543C6.39526 21.9416 7.32927 22.1853 8.3445 22.1853C9.64399 22.1853 10.71 21.7995 11.5425 21.0279C12.3953 20.236 12.9333 19.1396 13.1567 17.7386L15.6237 17.7386C15.4003 19.83 14.6491 21.4645 13.3699 22.6421C12.0907 23.7995 10.4054 24.3782 8.31404 24.3782Z" fill="#FDFDFC"/>
</svg>
